<svg width="16" height="10" viewBox="0 0 16 10" fill="none" xmlns="http://www.w3.org/2000/svg">
<path d="M9 8.836C9 8.232 8.735 7.657 8.262 7.282C7.539 6.708 6.285 6 4.5 6C2.715 6 1.461 6.708 0.738 7.282C0.265 7.657 0 8.232 0 8.836V10H9V8.836Z" fill="#132536"/>
<path d="M4.5 5C5.88071 5 7 3.88071 7 2.5C7 1.11929 5.88071 0 4.5 0C3.11929 0 2 1.11929 2 2.5C2 3.88071 3.11929 5 4.5 5Z" fill="#132536"/>
<path d="M11.5 5C12.8807 5 14 3.88071 14 2.5C14 1.11929 12.8807 0 11.5 0C10.1193 0 9 1.11929 9 2.5C9 3.88071 10.1193 5 11.5 5Z" fill="#132536"/>
<path d="M15.262 7.282C14.539 6.708 13.285 6 11.5 6C10.939 6 10.437 6.075 9.98096 6.189C10.625 6.909 11 7.836 11 8.836V10H16V8.836C16 8.232 15.735 7.657 15.262 7.282Z" fill="#132536"/>
</svg>
